<svg width="318" height="87" viewBox="0 0 318 87" fill="none" xmlns="http://www.w3.org/2000/svg">
<g filter="url(#filter0_dgn_986_878)">
<path d="M47.406 6.86035L49.4333 3.7002H277.007L278.51 7.21777L285.46 3.7002H313.7V45.9648H310.095L313.7 49.125V82.7002H138.562L136.621 79.54L134.68 82.7002H3.69995V48.5449L6.13647 49.0293L3.69995 41.5078V3.7002H45.3787L47.406 6.86035Z" fill="#EDEAE4"/>
</g>
<path d="M77.8188 9.49022C76.2216 9.35493 81.5538 9.44362 78.013 9.24158C78.7514 9.22792 79.4942 9.21385 80.2326 9.2002C80.4199 9.27502 80.6117 9.34966 80.799 9.42449C79.8075 9.44652 78.8154 9.46855 77.8188 9.49059C77.8188 9.49046 77.8188 9.49034 77.8188 9.49022ZM76.465 10.4273C77.3737 10.2139 80.2608 10.157 77.1419 9.96005C76.894 10.0333 76.64 10.1065 76.3922 10.1798C75.3093 10.123 74.2198 10.0662 73.1369 10.0097C72.7475 10.0376 72.3586 10.0655 71.9692 10.0932C71.4733 9.96588 70.9817 9.83826 70.4858 9.71067C70.9262 9.7293 71.3724 9.74825 71.8127 9.76688C73.5534 9.66352 75.1023 9.63525 77.4655 9.61601C77.258 9.58589 77.0501 9.55604 76.8426 9.52592C78.0419 9.57715 79.2406 9.6285 80.4349 9.67972C79.3976 9.73001 78.238 9.78593 77.2767 9.83279C78.815 10.0324 81.5281 9.92129 82.9403 9.87967C84.8635 9.82285 84.4288 9.91774 85.8558 9.87802C86.0835 9.87181 86.1094 9.79743 86.5597 9.79617C88.832 9.79027 93.2455 9.8297 90.6644 10.0033C86.9243 9.9809 83.7346 10.1203 80.0654 10.0694C81.0361 10.27 79.103 10.3383 76.465 10.4273ZM145.172 9.7883C144.039 9.88577 141.731 9.84643 140.167 9.77878C140.165 9.77878 140.163 9.77878 140.161 9.77878C139.817 9.76388 139.038 9.63435 140.161 9.63963C141.993 9.64867 142.879 9.85257 143.84 9.71415C144.27 9.73992 144.722 9.76284 145.172 9.7883ZM149.153 9.77622C150.277 9.8262 149.767 9.97984 148.36 9.93826C148.36 9.93838 148.36 9.9385 148.36 9.93862C147.773 9.92124 148.926 9.7998 146.82 9.92306C146.39 9.82717 145.967 9.73992 145.542 9.64713C146.057 9.64558 146.528 9.64307 147.068 9.64182C146.704 9.79945 148.03 9.72662 149.153 9.77622ZM92.563 9.91647C92.7398 9.77467 91.9999 9.77556 90.7399 9.67716C91.9291 9.68182 93.1185 9.68679 94.3026 9.69144C93.7208 9.76655 93.1448 9.84137 92.563 9.91647ZM64.6254 9.8945C64.6236 9.8945 64.6218 9.8945 64.62 9.8945C64.2303 9.91685 63.8395 9.93928 63.4549 9.96133C63.222 9.91072 62.9919 9.86033 62.7591 9.80972C61.3825 9.85723 59.9986 9.90472 58.622 9.95254C58.7892 9.79795 61.2602 9.8231 62.6215 9.71506C64.6457 9.76164 65.6212 9.85137 65.7527 9.98238C65.3783 9.95321 65.0048 9.92367 64.6254 9.8945ZM275.208 75.8896C274.748 75.9324 274.293 75.9753 273.833 76.0181C274.445 76.0377 275.052 76.0526 275.67 76.0752C277.284 75.889 277.436 76.0537 279.551 76.0423C286.034 76.0069 284.314 75.7176 290.168 76.1413C285.468 76.1212 287.274 76.3203 284.44 76.4737C283.853 76.3569 286.661 76.0936 284.758 76.039C281.479 76.1625 278.326 76.2776 274.688 76.3574C274.794 76.3776 274.9 76.3978 275.006 76.418C275.583 76.4053 276.155 76.3925 276.732 76.3797C276.11 76.4338 275.501 76.4873 274.869 76.542C275.668 76.4193 273.63 76.4879 273.903 76.347C274.025 76.2842 274.925 76.1972 275.457 76.1373C274.085 76.1047 272.679 76.0749 271.293 76.0432C272.011 75.9932 272.729 75.9432 273.442 75.8932C274.029 75.8917 274.611 75.8906 275.198 75.889C275.201 75.8892 275.205 75.8894 275.208 75.8896ZM11.8703 41.3129C12.0162 43.0539 12.0403 46.2176 11.878 47.8827C11.8755 45.6913 11.8728 43.5043 11.8703 41.3129ZM65.8848 10.0904C65.6877 10.0656 65.4967 10.0411 65.2996 10.0163C66.1699 9.97032 67.0454 9.92469 67.9157 9.87875C68.0826 9.95044 68.2533 10.0221 68.4254 10.0935C67.5804 10.0926 66.7297 10.0913 65.8848 10.0904ZM121.566 10.0106C120.929 10.0149 120.873 10.0126 120.08 10.0023C120.081 10.0024 120.082 10.0025 120.083 10.0025C119.768 9.9987 117.138 9.95683 117.432 9.90164C118.737 9.90071 120.13 9.90164 121.466 9.90164C121.507 9.93794 121.516 9.97396 121.566 10.0106ZM106.196 9.97835C106.194 9.97823 106.193 9.97811 106.191 9.97799C105.715 9.9696 105.265 9.95254 104.775 9.94943C106.541 9.86256 106.82 10.0184 108.424 9.97433C110.028 9.92993 111.019 9.84394 112.38 10.0575C111.874 10.0894 111.329 10.1352 110.808 10.1724C108.531 10.0871 107.917 10.1674 106.091 10.2515C106.126 10.1603 106.161 10.0696 106.196 9.97835ZM304.156 74.7546C304.412 74.3165 304.76 73.8872 304.788 73.8312C304.788 73.8322 304.788 73.8332 304.787 73.8342C304.793 73.8219 304.799 73.8098 304.805 73.7977C305.265 72.7185 305.167 72.244 305.215 72.0497C305.233 71.8537 305.237 71.9294 305.245 72.0114C305.242 72.1858 305.345 72.3276 305.381 70.4781C305.402 71.0281 305.422 71.5707 305.393 72.1567C305.31 72.6848 305.175 73.2801 304.861 73.826C304.662 74.1698 304.422 74.4826 304.156 74.7546ZM241.569 10.069C241.534 10.0383 241.492 10.0074 241.456 9.97671C243.642 9.98385 244.2 9.86285 246.017 9.97305C244.534 10.0053 243.052 10.0374 241.569 10.0694C241.569 10.0692 241.569 10.0691 241.569 10.069ZM132.586 10.2341C130.162 10.2928 128.368 10.3187 126.04 10.2255C126.039 10.2254 126.037 10.2253 126.035 10.2252C125.901 10.2194 126.55 10.1551 126.375 10.1389C125.894 10.1485 125.398 10.1633 124.913 10.1748C124.847 10.1233 124.785 10.0718 124.719 10.0207C126.085 10.0352 127.452 10.0498 128.824 10.0644C128.621 10.0343 128.414 10.0044 128.211 9.97433C129.375 9.95881 130.535 9.94334 131.698 9.92782C131.294 10.0122 130.89 10.0967 130.49 10.1814C131.188 10.1991 131.888 10.2161 132.586 10.2341ZM277.967 10.4053C277.583 10.3718 278.295 10.3156 277.698 10.2867C277.1 10.2582 276 10.3208 276.258 10.2261C277.062 10.2134 277.906 10.1988 278.725 10.1854C276.089 10.0147 273.458 10.1692 273.418 9.9584C275.948 10.013 278.029 9.98765 280.478 9.92929C280.377 10.0966 277.927 10.2413 279.47 10.3984C278.974 10.4006 278.453 10.4037 277.973 10.405C277.971 10.4051 277.969 10.4052 277.967 10.4053ZM30.4685 12.1887C28.9705 12.176 25.5381 12.2443 23.6452 12.1468C23.1796 12.1227 21.6281 11.8115 21.636 11.7705C21.6815 11.6323 23.5763 11.6135 21.547 11.5235C22.2296 11.5226 22.8921 11.5174 23.5697 11.5149C23.4482 11.4221 23.3274 11.3295 23.211 11.237C22.3861 11.2509 21.5602 11.265 20.7352 11.2793C20.6947 11.2485 20.6544 11.2177 20.6139 11.187C23.5796 11.1864 21.8289 11.0677 23.3675 10.9572C21.9507 10.9013 20.5234 10.8457 19.1117 10.7898C19.9264 10.7967 20.8877 10.8017 21.6064 10.8098C21.7025 10.6524 19.9879 10.6899 19.6942 10.6608C18.0393 10.4959 26.4646 10.5791 27.154 10.35C25.8081 10.3246 24.3958 10.2997 23.0195 10.2746C23.4143 10.2464 23.8142 10.2181 24.2089 10.1898C27.3312 10.3478 30.8325 10.4038 34.4708 10.5022C34.7995 10.4957 35.1288 10.489 35.4525 10.4828C35.3564 10.4117 35.2654 10.3409 35.1693 10.2698C35.6652 10.2615 36.1675 10.2531 36.6634 10.2448C35.2011 10.4788 37.2261 10.4756 39.6705 10.6185C38.3701 10.7007 36.7658 10.6508 36.8765 10.8041C41.3399 10.6862 46.5668 10.8528 50.9087 10.7197C51.9865 10.6868 51.983 10.4891 54.5172 10.5073C54.4312 10.5291 54.4164 10.5683 54.3608 10.5969C58.7436 10.5022 61.4028 10.4456 65.9577 10.5421C65.6946 10.471 65.4359 10.3997 65.1729 10.3286C64.2062 10.364 63.2379 10.4 62.2763 10.4354C61.6186 10.318 62.5907 10.2662 59.7061 10.2675C57.3426 10.2684 58.7496 10.3202 58.1069 10.355C57.2365 10.4025 56.4728 10.3091 55.5367 10.3621C54.8129 10.4028 55.5959 10.4996 53.7081 10.4751C54.4673 10.3497 55.2417 10.2201 56.0059 10.0932C56.4665 10.1214 56.9235 10.1501 57.3841 10.1787C56.9184 10.2122 56.4607 10.2453 55.9951 10.2788C57.6347 10.2186 59.184 10.1618 60.8793 10.0994C60.3276 10.2807 62.08 10.2127 63.0315 10.1913C64.5136 10.1578 63.2438 10.2826 64.2154 10.2618C65.1871 10.2407 66.2351 10.1013 67.9911 10.1311C67.05 10.2118 68.3303 10.2841 68.0829 10.3586C67.8349 10.4331 65.9774 10.4496 67.7619 10.5309C71.1932 10.4692 67.4699 10.1854 69.7873 10.1395C72.5706 10.0842 73.233 10.5467 72.4034 10.6461C71.7505 10.7243 69.504 10.7086 68.8461 10.7865C72.8695 10.9272 72.9044 10.6495 73.5927 10.5952C76.0927 10.3974 74.4134 10.9253 77.3738 10.7344C77.3182 10.8331 77.2731 10.9218 77.2174 11.0165C77.7282 10.9985 78.0674 10.9746 78.6846 10.9603C76.8646 10.768 78.3543 10.7762 79.1188 10.7759C80.3233 10.7753 78.4628 10.6815 78.7817 10.6573C79.6421 10.5925 81.0027 10.6219 80.1679 10.5372C80.5424 10.5766 80.9483 10.6161 81.333 10.6553C82.7402 10.6061 86.0475 10.1942 82.8999 10.2774C83.1934 10.1243 84.2116 10.1979 85.0062 10.2211C85.8006 10.2444 85.7858 10.1469 86.4841 10.1649C89.2623 10.237 87.4449 10.4037 87.0046 10.5344C90.6737 10.4444 87.0816 10.3848 92.3689 10.3246C92.88 10.2181 90.437 10.1045 92.4714 10.043C92.8461 10.228 94.344 10.3609 97.2638 10.4224C97.5472 10.3798 97.83 10.3369 98.1134 10.2944C99.7076 10.4651 98.8927 10.6427 101.843 10.431C100.259 10.8206 101.348 10.5713 103.99 10.73C104.527 10.7619 103.287 10.8428 104.036 10.8838C104.375 10.9022 105.2 10.8412 106.029 10.8883C106.434 10.9116 108.327 11.0619 109.637 10.9905C108.676 10.8017 111.166 10.6412 109.031 10.485C112.978 10.5235 115.741 10.4328 111.318 10.6902C112.32 10.7474 113.323 10.8042 114.325 10.8611C115.023 10.816 115.728 10.7714 116.431 10.7267C116.537 10.8818 116.431 10.9253 119.182 10.898C117.988 10.9347 116.799 10.9719 115.6 11.0088C115.56 11.0402 115.393 11.0727 115.433 11.1031C116.902 11.0435 121.036 11.0179 122.038 10.9766C123.04 10.9353 121.105 10.924 121.393 10.8839C123.797 10.5537 123.606 10.7973 125.331 10.7406C126.343 10.7071 123.926 10.6706 124.468 10.6564C126.476 10.604 127.407 10.7795 129.188 10.7818C128.555 10.6821 127.928 10.581 127.311 10.4804C129.178 10.4857 131.26 10.4866 132.996 10.4546C133.677 10.4421 133.162 10.368 133.273 10.363C133.826 10.3376 136.072 10.2973 136.31 10.2969C138.101 10.2964 138.152 10.399 139.892 10.4046C139.209 10.4133 138.567 10.4211 137.899 10.4295C137.595 10.5959 137.285 10.7623 136.982 10.929C138.687 10.9411 140.393 10.953 142.103 10.9651C140.853 10.9095 139.599 10.8542 138.349 10.7986C140.303 10.6642 142.256 10.5295 144.21 10.3947C145.227 10.4773 146.24 10.5599 147.257 10.6424C150.02 10.6207 149.463 10.2854 150.774 10.5791C151.588 10.5543 152.403 10.5295 153.217 10.5049C153.101 10.5468 152.986 10.5888 152.87 10.6307C153.851 10.605 154.833 10.5794 155.815 10.5533C154.782 10.4049 153.77 10.2487 152.748 10.1047C154.68 10.0724 154.717 10.1983 155.005 10.2297C155.77 10.313 157.287 10.2007 157.894 10.2777C158.099 10.3042 156.206 10.387 156.858 10.4826C156.986 10.5011 159.521 10.8525 161.138 10.7713C161.108 10.7077 160.983 10.6297 160.917 10.5604C163.093 10.5218 164.202 10.854 163.914 10.9471C165.072 10.8819 166.766 10.8765 167.004 10.7746C167.596 10.7722 168.184 10.7698 168.776 10.7673C168.159 11.0153 170.629 10.97 170.791 10.7567C169.774 10.7514 168.755 10.7459 167.738 10.7406C168.507 10.4792 165.416 10.3214 171.848 10.5635C173.078 10.6995 169.662 10.545 170.664 10.6468C172.405 10.7061 174.039 10.6565 175.694 10.7512C177.753 10.8695 175.219 10.9833 180.017 10.8327C169.435 10.4555 181.468 10.5779 186.438 10.4608C187.805 10.8334 192.002 10.9514 197.782 10.8406C197.18 10.7369 195.361 10.7903 194.314 10.7561C193.266 10.722 194.399 10.6605 193.094 10.6121C191.789 10.5636 189.017 10.4978 187.695 10.4246C188.814 10.3659 194.339 10.2271 190.686 10.3938C193.413 10.4965 194.694 10.6021 198.073 10.6214C199.085 10.4596 199.01 10.3589 202.305 10.3543C200.356 10.579 204.1 10.7352 203.275 10.9674C200.939 10.9134 202.245 10.6877 200.894 10.5796C200.756 10.5688 198.579 10.6254 198.073 10.6214C200.27 10.8241 201.029 10.8996 199.678 11.1408C201.231 11.1197 202.198 11.15 202.34 11.0348C202.663 11.0848 202.989 11.1348 203.308 11.1848C203.813 11.1835 204.269 11.1789 204.805 11.1798C204.066 11.0061 205.497 11.113 206.515 11.0343C207.532 10.9554 206.167 10.8182 208.961 10.8164C208.029 10.7757 207.178 10.7408 206.277 10.7023C208.079 10.6576 209.886 10.6126 211.687 10.5679C210.422 10.4618 207.68 10.3041 207.755 10.1644C208.585 10.2171 211.427 10.1244 211.738 10.1206C212.943 10.1063 212.287 10.1944 212.378 10.1966C214.27 10.2394 215.829 10.2094 216.547 10.3429C217.969 10.2827 219.042 10.317 220.549 10.3136C221.379 10.3117 221.218 10.2137 221.704 10.2323C224.932 10.3565 221.856 10.4832 228.085 10.242C227.331 10.1737 226.587 10.1038 225.833 10.0349C226.536 10.0092 227.236 9.98325 227.939 9.95748C228.41 9.9699 228.876 9.98241 229.347 9.99483C229.337 10.1429 229.325 10.2913 229.315 10.4394C229.831 10.4475 230.349 10.4553 230.865 10.4634C229.98 10.478 229.092 10.4925 228.206 10.5071C228.125 10.5332 228.05 10.5593 227.969 10.5853C229.285 10.6257 230.596 10.6664 231.912 10.7071C231.937 10.6556 231.962 10.6037 231.987 10.5522C234.953 10.6239 235.023 10.6675 237.842 10.5256C240.013 10.5272 241.781 10.3118 243.037 10.2211C243.487 10.25 243.938 10.2792 244.393 10.3081C244.682 10.2653 244.973 10.2226 245.262 10.1798C245.833 10.2394 246.413 10.299 246.985 10.3583C247.304 10.223 247.469 10.1807 245.237 10.1333C246.002 9.96498 249.93 10.0392 251.529 10.0957C252.743 10.1386 251.396 10.279 251.548 10.296C252.055 10.354 254.054 10.304 254.474 10.3136C256.251 10.3537 257.495 10.3466 259.1 10.3777C259.412 10.3839 260.285 10.4729 260.359 10.4756C260.936 10.4909 262.36 10.5341 262.522 10.5353C270.876 10.6017 261.95 10.2158 269.717 10.2565C269.485 10.2056 269.271 10.155 269.043 10.1041C269.63 10.101 270.223 10.0981 270.81 10.095C271.554 10.1375 270.654 10.2149 272.131 10.1525C272.035 10.2152 271.939 10.2779 271.837 10.3403C272.48 10.3065 273.1 10.2729 273.758 10.2391C274.79 10.4567 278.559 10.5061 278.291 10.7616C278.2 10.8486 275.528 10.9378 276.94 11.0306C278.087 11.0489 277.311 10.9451 277.779 10.9396C281.159 10.9017 280.963 11.0473 282.345 11.0085C282.562 10.9461 282.791 10.8825 283.013 10.8195C283.534 10.8378 284.057 10.8561 284.583 10.8744C284.705 10.8325 284.831 10.7906 284.953 10.7486C284.462 10.7458 283.909 10.743 283.458 10.7402C284.087 10.5779 289.854 10.505 287.655 10.6434C286.759 10.6996 285.119 10.6757 286.155 10.8675C287.699 10.8398 289.45 10.8116 291.075 10.784C291.125 10.8253 291.172 10.8666 291.223 10.9079C293.412 10.8812 291.421 10.7161 291.425 10.6276C291.926 10.6251 292.432 10.623 292.933 10.6205C293.145 10.6605 293.347 10.7024 293.569 10.7411C293.59 10.6775 293.87 10.5295 295.363 10.5844C296.323 10.6202 294.811 10.7808 296.641 10.7585C296.504 10.6592 295.843 10.5382 297.882 10.5062C298.004 10.5687 298.154 10.6281 298.288 10.6892C298.379 10.7295 298.458 10.7706 298.521 10.8138C300.14 10.7824 301.27 10.6841 302.458 11.2264C303.071 11.5482 303.707 12.0495 304.197 12.9126C304.214 12.9437 304.231 12.9757 304.248 13.008C304.803 14.1568 304.784 15.8369 304.772 17.1002C304.752 17.7059 304.691 18.239 304.563 18.631C304.552 20.0118 304.652 19.5735 304.674 19.9822C304.781 21.9104 304.591 23.3446 304.579 23.7039C304.508 25.9956 304.573 27.023 304.484 28.8902C304.558 28.7889 304.628 28.7338 304.701 28.6528C304.589 26.9422 304.595 26.0759 304.619 23.677C304.633 24.4815 304.649 25.2863 304.664 26.0907C304.724 25.9592 304.784 25.8289 304.844 25.7024C304.607 18.2829 304.982 20.0137 305.063 26.2337C304.952 26.77 304.841 27.3259 304.729 27.8572C304.898 31.4504 304.751 33.1412 304.716 37.2049C304.712 37.688 304.776 39.4476 304.78 40.2039C304.78 40.1913 304.781 40.1787 304.781 40.1661C304.886 40.6366 304.935 39.9994 305.029 39.9234C305.04 40.3332 305.052 40.7433 305.064 41.1532C304.992 42.0685 304.933 41.7467 304.951 43.5481C305.022 43.3052 305.093 43.0655 305.165 42.8226C305.167 44.7964 305.09 46.0881 305.123 47.9252C305.096 47.6165 305.069 47.3116 305.042 47.0029C304.973 51.0011 304.553 47.8192 304.762 50.8406C304.726 51.0329 304.689 51.2201 304.652 51.4124C304.643 50.1676 304.634 48.9222 304.625 47.6825C304.573 47.6572 304.522 47.6299 304.47 47.6097C304.486 48.9407 304.502 50.2782 304.517 51.6093C304.482 50.6376 304.448 49.6602 304.413 48.6885C304.388 50.2319 304.363 51.7757 304.338 53.3191C304.529 51.6801 304.552 53.805 304.741 53.4054C304.584 56.1384 304.377 58.2851 304.509 62.5211C304.536 63.3609 304.668 62.9047 304.507 65.2882C304.717 64.7113 304.815 67.6972 305.015 67.3136C305.005 66.4839 304.999 65.6234 304.987 64.8189C304.918 65.7349 304.728 65.8868 304.671 64.4953C304.599 62.719 304.731 60.1281 304.52 60.2341C304.53 59.5258 304.536 58.867 304.544 58.179C304.596 58.4623 304.649 58.7396 304.702 59.0178C304.619 57.06 304.646 55.8299 304.778 54.8888C304.809 57.2215 304.839 59.5492 304.869 61.8819C304.878 61.5383 304.887 61.19 304.896 60.8463C305.031 62.6126 305.159 60.7906 305.188 64.0853C305.126 64.0651 305.064 64.0489 305.002 64.0287C305.167 65.2282 305.166 68.5123 305.356 67.4646C305.298 68.4565 305.261 68.6587 305.363 69.2203C305.362 69.2471 305.36 69.2737 305.359 69.3002C305.308 71.8649 304.687 73.6209 304.68 72.6029C304.633 72.9362 304.549 73.2748 304.4 73.5914C304.118 74.1983 303.683 74.7392 303.145 75.1502C303.664 74.8541 304.131 74.4386 304.495 73.9338C304.072 74.6544 303.437 75.251 302.69 75.6286C301.697 76.1096 300.698 76.0656 299.765 76.0966C299.684 76.0059 300.499 76.0005 301.233 75.9064C301.971 75.8238 302.589 75.5402 302.063 75.6447C301.859 75.6992 300.938 75.8889 300.694 75.8722C298.148 75.7807 302.14 75.739 301.372 75.6048C298.736 75.7672 299.434 75.5184 298.288 75.5421C297.804 75.5407 296.989 75.5623 295.452 75.6241C295.315 75.5732 295.168 75.5213 295.042 75.4707C293.246 75.4676 293.392 75.5826 291.849 75.6043C290.882 75.6178 289.669 75.4159 288.602 75.5534C288.411 75.5788 290.207 75.8256 286.433 75.8147C283.504 75.8063 284.723 75.6319 283.14 75.5701C281.556 75.5083 277.932 75.7501 276.864 75.476C277.694 75.5123 278.751 75.5319 279.672 75.5617C280.046 75.5083 280.411 75.4555 280.78 75.4024C278.675 75.4713 276.499 75.3901 275.082 75.5174C272.273 75.3227 269.132 75.5033 269.982 75.7232C270.906 75.6915 269.901 75.5956 271.185 75.6567C271.316 75.7079 271.455 75.7589 271.587 75.8101C269.4 75.8039 267.882 75.8054 268.879 75.6492C268.54 75.6455 268.204 75.6417 267.865 75.638C267.804 75.751 267.75 75.8645 267.689 75.9775C267.285 75.9902 266.878 76.0028 266.473 76.0156C266.023 75.9907 265.572 75.9656 265.117 75.9405C265.729 75.7617 266.772 75.7558 263.32 75.6558C263.31 75.7176 263.295 75.7791 263.285 75.8409C260.396 75.7623 260.319 75.6127 256.691 75.6182C259.475 75.4037 260.998 75.784 260.987 75.3537C261.686 75.3819 262.39 75.4106 263.088 75.4388C263.195 75.3764 263.3 75.3139 263.401 75.2515C259.651 75.2844 253.422 75.6948 250.912 75.4227C250.608 75.4559 250.303 75.4848 249.995 75.5205C247.535 75.3562 246.473 75.725 243.978 75.5126C243.72 75.4903 244.259 75.1439 241.011 75.1563C241.092 75.2013 241.134 75.2771 241.2 75.3339C240.497 75.3063 239.797 75.2774 239.099 75.2491C238.973 75.2907 238.84 75.3323 238.713 75.3742C239.913 75.3903 241.109 75.4067 242.308 75.4229C241.312 75.4372 240.309 75.4514 239.312 75.4657C240.612 75.5337 241.199 75.5344 240.415 75.6433C239.287 75.6498 238.156 75.6568 237.028 75.6633C236.912 75.6912 236.796 75.7194 236.68 75.7473C237.226 75.8305 237.778 75.9119 238.325 75.9963C235.385 75.9283 232.828 75.9247 230.571 75.7611C230.187 75.7334 231.547 75.625 228.926 75.7228C228.886 75.6654 228.815 75.6188 228.77 75.5657C225.561 75.7265 224.507 75.6785 221.162 75.5624C223.328 75.6708 221.395 75.6003 220.843 75.6583C220.465 75.6983 221.941 75.6924 221.774 75.7343C221.607 75.7759 219.69 75.9439 221.329 75.9641C225.347 75.6198 226.442 76.0315 231.604 75.866C230.81 75.9104 230.009 75.9549 229.215 75.9993C229.589 76.0294 229.924 76.0567 230.329 76.0886C227.449 76.0213 228.85 76.065 227.667 76.1181C226.482 76.1712 224.33 76.2163 222.888 76.2309C222.433 76.2355 222.913 76.1582 221.887 76.1511C221.189 76.1461 219.28 76.2606 218.84 76.1256C218.551 76.0377 221.617 75.7958 217.378 75.7964C216.58 75.7103 218.612 75.737 218.656 75.7266C219.026 75.6242 216.419 75.5471 215.215 75.6254C215.117 75.6321 216.069 75.712 215.034 75.7433C212.58 75.8181 211.162 75.7266 209.573 75.6027C209.401 75.748 207.335 75.9215 204.764 75.8678C204.633 75.9094 204.507 75.9513 204.376 75.9932C204.775 75.9712 205.174 75.9495 205.573 75.9275C206.008 75.9536 206.47 75.9726 206.895 76.0033C204.309 76.039 203.944 76.2393 202.704 76.3125C198.461 76.5628 201.032 76.0334 201.798 75.9421C202.349 75.9791 202.883 76.0203 203.429 76.0591C203.368 76.0085 203.307 75.9575 203.251 75.9066C196.9 75.9082 202.284 75.5781 199.06 75.484C198.23 75.733 195.862 75.757 192.846 75.599C192.512 75.6003 192.177 75.6006 191.843 75.6021C191.788 75.6384 191.788 75.6939 191.697 75.7178C188.064 75.7601 187.416 75.3766 187.072 75.3403C185.544 75.1792 184.354 75.4021 183.903 75.404C182.006 75.4118 181.454 75.3128 179.648 75.3553C177.705 75.4013 179.033 75.4772 178.442 75.5452C177.968 75.5992 176.435 75.6088 175.802 75.6647C176.053 75.619 176.333 75.5741 176.584 75.5282C174.57 75.4658 172.924 75.4049 170.637 75.3897C168.056 75.7246 165.86 75.1597 166.751 75.6179C168.917 75.6492 170.128 75.7014 171.287 75.8182C169.865 75.8331 168.442 75.8476 167.02 75.8625C166.606 75.8122 166.311 75.7632 165.82 75.712C164.758 75.8188 162.294 75.7729 161.327 75.8043C156.798 75.9511 158.199 76.1333 154.064 75.8272C157.044 75.7973 157.04 75.6487 159.995 75.6691C159.357 75.563 157.855 75.585 158.827 75.4577C155.968 75.489 156.892 75.6027 155.78 75.7036C154.82 75.7905 152.887 75.7954 152.996 75.9084C152.799 75.8463 152.646 75.7861 152.449 75.7241C150.597 75.7247 148.745 75.7247 146.893 75.7254C147.683 75.6605 148.472 75.5955 149.261 75.5309C148.664 75.5064 148.067 75.482 147.47 75.4575C142.915 75.6593 135.061 75.2894 136.316 75.7964C134.119 75.8125 133.845 75.749 132.651 75.653C132.519 75.6915 132.391 75.7235 132.259 75.7664C130.843 75.7261 129.755 75.8706 128.505 75.833C127.256 75.7957 126.945 75.6593 126.763 75.8887C125.953 75.8229 125.148 75.7682 124.344 75.707C123.858 75.7592 123.373 75.8107 122.893 75.8625C122.134 75.8352 121.373 75.808 120.614 75.7806C120.208 75.8902 117.224 75.843 115.908 75.9165C114.659 75.7985 114.693 75.4268 111.755 75.4934C111.83 75.5856 111.905 75.6775 111.981 75.7697C111.308 75.7504 110.634 75.7312 109.956 75.712C109.915 75.6819 109.88 75.6518 109.84 75.6217C110.184 75.631 110.523 75.6403 110.867 75.6499C110.569 75.599 110.276 75.5483 109.983 75.4974C108.955 75.5728 107.927 75.6483 106.895 75.7237C108.286 75.7808 109.678 75.838 111.07 75.8951C109.323 75.9628 108.108 75.8953 106.59 75.9707C105.269 75.8434 105.757 75.7701 106.293 75.632C105.803 75.6438 105.306 75.6552 104.815 75.6669C105.139 75.5288 104.309 75.4465 107.178 75.4577C106.981 75.4183 106.779 75.3807 106.587 75.3398C106.117 75.346 105.811 75.3127 105.295 75.3279C103.888 75.3695 102.81 75.6121 102.906 75.6972C102.958 75.7417 104.345 75.6565 104.289 75.7195C104.152 75.8731 100.97 75.8041 105.56 75.9584C104.036 76.0562 103.696 75.9825 102.016 75.9542C102.147 76.0054 102.275 76.0563 102.402 76.1075C101.622 76.0839 100.842 76.0604 100.063 76.0368C101.146 75.7738 95.402 75.6751 100.573 75.445C99.0449 75.4332 97.522 75.4214 95.999 75.409C96.3127 75.382 96.6265 75.3552 96.9402 75.3282C97.6284 75.3425 98.3125 75.3565 99.0007 75.3705C98.1912 75.3212 97.3802 75.2721 96.5707 75.2228C94.6578 75.2839 93.9079 75.378 93.0323 75.4941C95.2586 75.5788 94.5312 75.4631 96.266 75.4401C96.2054 75.5136 96.2855 75.5813 96.1338 75.6585C95.2375 75.5062 92.3133 75.617 91.6353 75.6245C89.5717 75.6471 91.1899 75.4974 89.8095 75.4943C88.4278 75.4912 86.7983 75.5803 85.6697 75.4319C85.6899 75.515 85.7802 75.6011 85.8612 75.6768C83.7102 75.7042 84.1394 75.6059 83.9167 75.5932C80.3639 75.3839 78.4361 75.5606 74.3722 75.582C74.8883 75.6078 75.4098 75.631 75.931 75.6552C72.8651 75.8318 74.9304 75.7778 77.5923 75.8361C75.0972 75.8184 73.6684 75.9688 71.9071 76.0135C70.1462 76.0582 67.1261 75.9809 66.0224 75.9207C68.5479 75.8238 71.2717 75.8877 74.0755 75.861C73.7567 75.7763 73.4469 75.7046 73.1181 75.6115C71.4127 75.7893 70.4246 75.6704 69.8629 75.6468C68.2134 75.5776 68.2652 75.7303 67.2684 75.5661C67.3089 75.6225 67.3385 75.67 67.379 75.7228C63.9731 75.6992 60.2994 75.5993 58.0826 75.8079C57.8802 75.6723 57.7274 75.5416 57.4947 75.4031C56.0525 75.5052 54.8174 75.4007 53.603 75.4245C52.3934 75.4484 52.8539 75.5581 51.4319 75.6003C51.1687 75.6081 50.6207 75.5394 49.9729 75.59C49.3187 75.6409 46.9063 76.0192 46.6179 75.6887C45.3983 75.6872 44.2441 75.6751 43.0498 75.6695C44.2137 75.6509 45.3781 75.6328 46.537 75.6142C45.5451 75.5341 44.5594 75.4543 43.5676 75.3742C43.4411 75.4456 43.3142 75.5183 43.1927 75.5888C40.5206 75.6757 38.5814 75.5589 35.884 75.5866C35.4336 75.5912 36.4962 75.7324 34.4978 75.6964C32.4988 75.6604 31.0154 75.3969 27.6098 75.4987C27.4377 75.504 26.4292 75.7058 25.2095 75.5661C24.9319 75.5344 26.1001 75.4875 25.463 75.4459C24.8253 75.4043 21.9801 75.3701 21.7574 75.2711C21.7877 75.3062 21.9653 75.3425 22.0514 75.3782C21.5656 75.395 21.075 75.4117 20.5842 75.4282C20.5387 75.3664 20.4895 75.3045 20.444 75.2431C19.9673 75.2676 19.5299 75.2948 19.1117 75.3226C17.7402 75.3607 16.4824 75.7105 14.9649 75.1283C14.3422 74.8267 13.6972 74.2894 13.2831 73.4472C13.2479 73.3752 13.2157 73.3004 13.1867 73.2231C13.2107 73.3012 13.2381 73.3784 13.2693 73.4542C13.5778 74.2059 14.1416 74.8738 14.8695 75.3156C15.0784 75.443 15.3061 75.542 15.5397 75.618C15.8742 75.6345 16.1976 75.6091 16.5133 75.5713C17.373 75.6461 18.2418 75.6438 19.1117 75.658C20.1531 75.6716 21.1947 75.6853 22.2348 75.699C22.5485 75.6273 22.8568 75.5558 23.1706 75.484C23.6766 75.4933 24.1776 75.5024 24.6836 75.5117C24.5571 75.5635 24.4295 75.6151 24.2979 75.6669C25.2997 75.6542 26.3028 75.6412 27.2996 75.6285C25.2703 75.9345 21.6325 75.6025 21.8949 75.8585C21.4448 75.8187 20.9939 75.7787 20.5438 75.7387C20.4073 75.8245 19.9278 75.8339 19.1117 75.8251C18.7454 75.821 18.315 75.8145 17.8156 75.8033C18.1849 75.8685 18.594 75.929 18.9333 75.9908C17.8855 75.8813 16.2356 76.107 14.8033 75.4455C14.1519 75.1088 13.6473 74.6152 13.3325 74.1598C12.9317 73.5336 13.4148 74.1032 13.3029 73.9137C13.2378 73.8016 13.1684 73.6766 13.1004 73.5402C12.5684 72.4876 12.582 70.7639 12.5604 70.3905C12.5685 70.0081 12.5844 69.6496 12.6025 69.3002C12.7084 67.2689 12.9009 65.6822 12.7334 63.258C12.6849 66.1883 12.7054 64.5941 12.5964 65.6367C12.5623 65.9631 12.491 69.7487 12.5226 65.0083C12.5266 64.4526 12.7323 55.8511 12.8899 58.6786C12.8396 57.2868 12.7815 56.1971 12.7281 54.9217C13.1435 51.8041 12.7532 52.8831 12.5384 53.789C12.5375 53.2778 12.5353 52.7916 12.5353 52.2652C12.761 53.3837 12.775 47.6854 12.6611 45.7521C12.6232 45.1043 12.5509 46.9156 12.5168 45.4177C12.5326 44.7044 12.5531 43.8952 12.5708 43.1415C12.428 44.2346 12.373 42.0893 12.2277 42.1193C12.3571 40.7479 12.6315 39.6989 12.7803 40.4526C12.72 39.3191 12.6599 38.1798 12.5994 37.0463C12.5649 37.5727 12.5307 38.1058 12.4963 38.6322C12.5876 34.9275 12.3798 30.164 12.685 29.3897C12.6829 28.8988 12.681 28.4027 12.6788 27.9118C12.6273 27.76 12.5756 27.6132 12.5241 27.4614C12.5688 25.2401 12.6138 23.0239 12.6585 20.8026C12.6905 22.7805 12.7638 23.2513 12.7043 25.3254C12.7635 24.5261 12.8231 23.7119 12.8824 22.9278C12.7557 20.4486 12.6635 19.6692 12.6546 17.1002C12.6559 16.4321 12.6422 15.6454 12.7053 14.6751C12.7274 14.5841 12.7362 13.6772 13.165 12.8931C13.6255 12.0222 14.4901 11.4817 14.5414 11.4632C15.0249 11.2249 14.3928 11.7352 14.6084 11.6308C14.6946 11.5872 14.8439 11.5075 15.0431 11.4254C16.0914 10.9284 19.1966 11.3311 19.1105 11.3078C18.9463 11.3718 18.4389 11.4213 17.7081 11.4747C17.0001 11.5403 15.9509 11.5548 15.2951 11.9201C14.7621 12.2122 14.2727 12.6938 13.9784 13.3075C13.5939 14.0979 13.701 15.7006 13.6957 17.1002C13.7236 20.3569 13.7292 23.4447 13.7371 24.9424C13.816 39.8253 13.8254 54.5846 13.809 69.3002C13.8231 70.684 13.7392 72.2839 14.1205 73.0205C14.3951 73.5645 14.8462 74.0176 15.3897 74.2948C16.1274 74.6811 17.7288 74.601 19.1117 74.6194C39.7156 74.6566 60.273 74.7229 81.004 74.6976C81.4072 74.6969 81.2312 74.639 81.4031 74.6365C82.4708 74.6219 83.5193 74.7122 83.914 74.7159C84.7574 74.7236 84.2929 74.6402 84.9091 74.6401C91.2758 74.6411 97.2839 74.6901 103.656 74.6758C104.071 74.6749 103.647 74.7417 104.376 74.7299C104.752 74.7234 105.93 74.621 106.779 74.6195C109.744 74.6142 112.235 74.647 115.363 74.6455C117.074 74.6445 119.64 74.6532 121.553 74.6517C122.397 74.651 123.277 74.6042 124.112 74.6026C125.296 74.6004 125.054 74.6954 125.237 74.7013C126.036 74.7271 126.147 74.6228 126.906 74.6253C128.318 74.6303 128.394 74.6999 130.186 74.694C131.466 74.6896 134.396 74.6347 136.011 74.6185C139.786 74.6993 144.544 74.6672 148.066 74.6405C150.151 74.6247 150.344 74.7221 151.195 74.7218C154.19 74.7199 156.464 74.5955 159.277 74.5914C163.012 74.5862 166.321 74.6685 169.939 74.6744C170.525 74.6753 170.39 74.586 170.966 74.5837C173.097 74.5754 175.821 74.5591 177.719 74.5718C179.834 74.5858 180.615 74.7154 182.684 74.689C183.291 74.6812 183.469 74.5676 184.486 74.553C186.11 74.53 187.891 74.6302 189.025 74.6414C190.579 74.6563 189.227 74.5406 191.323 74.5561C191.409 74.5568 191.722 74.6395 192.172 74.6356C193.483 74.6244 193.353 74.5592 195.271 74.5654C195.455 74.5663 197.998 74.6451 198.251 74.6455C199.739 74.6467 202.735 74.6743 203.615 74.6575C206.763 74.5979 204.285 74.4735 206.962 74.7436C208.141 74.6775 209.31 74.6105 210.56 74.5462C209.726 74.6061 213.111 74.6926 213.349 74.687C215.316 74.642 214.144 74.5369 216.639 74.5543C213.344 74.7971 219.857 74.5856 221.31 74.5794C228.304 74.5492 234.661 74.6098 241.691 74.6083C244.044 74.6076 247.198 74.5563 249.687 74.5576C250.268 74.5576 249.829 74.6151 250.34 74.6163C250.849 74.6172 250.284 74.5527 250.866 74.5561C254.484 74.5785 257.319 74.7002 260.634 74.548C260.796 74.57 260.79 74.5874 261.058 74.6116C263.77 74.4753 268.995 74.6586 270.958 74.6837C274.029 74.7228 274.814 74.6307 277.045 74.6493C279.996 74.6741 284.425 74.8541 282.447 74.557C284.471 74.5477 286.42 74.5451 288.464 74.5728C288.692 74.5759 288.535 74.6514 288.626 74.653C289.203 74.6638 289.39 74.5962 289.78 74.5931C290.837 74.5847 289.113 74.6657 290.619 74.6431C291.413 74.631 291.865 74.572 294.071 74.5707C295.465 74.5701 296.872 74.5697 298.288 74.5696C299.66 74.5542 301.27 74.6343 301.991 74.2571C302.526 73.9862 302.973 73.5413 303.246 73.0034C303.622 72.2913 303.546 70.688 303.561 69.3002C303.567 60.6038 303.577 51.7454 303.583 43.2029C303.584 42.2666 303.511 42.8829 303.516 41.7088C303.532 37.6297 303.655 30.3282 303.638 26.8108C303.621 23.2937 303.515 24.0872 303.47 21.8862C303.461 21.4611 303.522 21.8097 303.523 21.425C303.526 20.0495 303.554 18.5335 303.582 17.1002C303.603 15.8474 303.647 14.6252 303.495 13.8902C303.439 13.6189 303.37 13.4745 303.307 13.3662C303.082 13.0133 302.993 12.9598 302.633 12.6082C302.437 12.4292 302.219 12.2719 301.99 12.146C301.491 11.8505 300.504 11.7837 299.978 11.765C299.401 11.7501 298.834 11.7524 298.288 11.7539C295.56 11.7631 293.379 11.8117 290.584 11.7786C290.715 11.7996 290.802 11.8191 290.913 11.8399C286.94 11.8365 282.973 11.8331 279 11.8296C279.188 11.8489 279.369 11.8683 279.556 11.8879C274.895 11.8773 275.427 11.6687 275.837 12.1092C275.498 12.1248 275.139 12.1427 274.815 12.157C274.946 11.9301 272.127 11.764 268.539 11.7062C268.276 11.7019 266.51 11.9232 266.702 11.6617C266.242 11.7257 265.967 11.7698 265.578 11.826C264.819 11.7468 264.05 11.6686 263.291 11.5898C262.881 11.6016 262.465 11.613 262.055 11.6248C261.995 11.676 262.041 11.7292 261.91 11.7795C260.007 11.7872 256.105 11.7239 254.601 11.7304C250.866 11.7469 247.064 11.8854 244.159 11.7357C242.743 11.751 244.149 11.8515 242.044 11.8388C241.806 11.7879 241.583 11.7391 241.335 11.6866C239.615 11.9141 239.255 11.7757 236.898 11.7282C235.304 11.6959 234.26 11.7515 232.742 11.7407C232.358 11.7379 232.412 11.6711 232.149 11.6733C231.268 11.6802 228.753 11.772 228.131 11.7745C222.493 11.7987 217.65 11.7884 212.281 11.7639C211.704 11.7614 212.452 11.8273 211.854 11.8245C210.894 11.8201 211.459 11.7189 210.902 11.7139C209.35 11.7006 209.338 11.8074 207.173 11.813C200.042 11.8313 191.844 11.7511 184.394 11.744C184.161 11.744 184.175 11.8065 183.922 11.8071C182.273 11.8102 180.603 11.7256 179.105 11.7266C176.62 11.7278 174.753 11.8157 172.298 11.8154C167.501 11.8151 163.214 11.7701 158.28 11.7676C154.241 11.7654 150.733 11.7737 146.305 11.7734C126.962 11.7722 107.224 11.9707 87.749 11.8652C87.2534 11.8624 87.4552 11.8071 87.304 11.8095C85.8667 11.8334 85.7385 11.908 85.2274 11.7518C83.3964 11.7826 82.8186 11.8999 80.6075 11.8915C79.429 11.8871 80.3089 11.7053 78.3151 11.7991C76.5148 11.8838 78.5014 11.9835 73.1477 11.8816C73.006 11.8788 72.3084 11.768 71.1951 11.7969C70.0767 11.8254 71.3713 11.9048 68.6789 11.9287C62.358 11.9846 54.3572 11.8888 47.0089 11.9183C46.5484 11.9201 42.1129 11.9794 41.2374 12.0067C39.5431 12.0598 39.897 12.1421 37.6964 12.1623C35.9958 12.1779 34.5928 12.0846 32.5937 12.1032C32.3608 12.1055 31.9708 12.2014 30.4685 12.1887ZM267.87 76.0756C267.455 76.1698 266.706 76.5163 264.197 76.4109C263.959 76.4009 265.243 76.1626 263.857 76.1247C265.213 76.0995 266.534 76.0914 267.87 76.0752C267.87 76.0754 267.87 76.0755 267.87 76.0756ZM19.5917 9.9789C21.4693 9.99629 23.3534 10.0135 25.231 10.0309C23.9354 10.0728 22.638 10.1146 21.3475 10.1569C20.7605 10.0976 20.1786 10.0382 19.5917 9.9789ZM253.325 10.1435C253.324 10.1435 253.322 10.1435 253.32 10.1435C255.294 10.0988 257.269 10.054 259.243 10.0093C259.035 10.0422 258.827 10.0753 258.62 10.1082C257.061 10.16 255.502 10.2118 253.948 10.2636C253.741 10.2236 253.533 10.1835 253.325 10.1435ZM237.732 10.4919C236.472 10.4528 236.78 10.3868 236.087 10.3226C236.087 10.3227 236.087 10.3228 236.087 10.3229C235.904 10.3062 235.051 10.2916 234.722 10.2891C234.843 10.3304 235 10.3711 235.132 10.4121C232.191 10.5121 226.441 10.1568 233.886 10.0137C233.775 10.0658 233.668 10.1177 233.557 10.1699C237.256 10.1553 241.381 10.2684 237.732 10.4919ZM238.123 76.2258C234.965 76.3965 233.952 76.4325 230.121 76.3155C230.662 76.2671 231.203 76.2187 231.744 76.1703C232.377 76.2196 233.005 76.2687 233.638 76.318C233.64 76.318 233.641 76.318 233.643 76.318C233.77 76.2662 233.897 76.2142 234.018 76.1624C235.384 76.1835 236.756 76.2046 238.123 76.2258ZM116.844 10.3685C115.963 10.0275 116.217 10.2257 118.732 10.1488C119.602 10.1221 118.754 10.0624 119.295 10.0525C122.22 9.99824 122.453 10.2267 121.801 10.3456C120.146 10.3537 118.474 10.3611 116.849 10.3685C116.847 10.3685 116.846 10.3685 116.844 10.3685ZM40.9704 10.4394C40.9687 10.4394 40.9669 10.4394 40.965 10.4394C40.8892 10.3562 42.068 10.3338 40.7385 10.255C41.75 10.2553 42.7614 10.256 43.778 10.2563C43.4798 10.264 43.1753 10.2714 42.8772 10.2792C43.1404 10.3077 43.4042 10.3367 43.6674 10.3652C44.0267 10.2696 44.3605 10.3252 45.4231 10.3572C45.1295 10.255 44.8375 10.1528 44.5439 10.0507C45.7786 10.0811 47.0175 10.1116 48.2522 10.142C48.2674 10.1678 48.2829 10.1936 48.298 10.2193C48.7635 10.1864 49.2242 10.1532 49.6897 10.1203C49.8162 10.151 49.938 10.1814 50.0645 10.2122C50.6261 10.1889 51.1886 10.1656 51.7501 10.142C51.9211 10.2165 50.6834 10.2487 52.8775 10.2297C52.2045 10.3061 51.5328 10.3822 50.8548 10.4586C47.5601 10.4524 44.2651 10.4459 40.9704 10.4394ZM139.716 10.2636C136.088 10.2779 137.11 10.2239 137.95 10.0551C138.537 10.1246 139.13 10.1941 139.716 10.2636ZM304.975 34.4162C305.09 35.4689 305.204 36.526 305.315 37.604C305.379 39.7499 305.169 41.8965 305.087 40.2821C304.988 38.3387 305.099 36.309 304.975 34.4162ZM295.357 76.0377C297.983 76.0911 295.513 76.228 294.921 76.3078C294.194 76.1796 293.181 76.1909 291.555 76.176C293.082 76.1676 294.923 76.0286 295.357 76.0374C295.357 76.0375 295.357 76.0376 295.357 76.0377ZM284.413 10.2845C283.361 10.2879 282.315 10.3201 281.374 10.281C281.658 10.1709 283.539 10.2711 282.194 10.1078C282.867 10.105 283.54 10.1023 284.208 10.0992C283.784 10.1668 284.355 10.2174 284.41 10.2841C284.411 10.2842 284.412 10.2844 284.413 10.2845ZM174.874 10.1338C176.939 10.2642 177.33 10.2084 179.41 10.1181C179.703 10.2242 177.223 10.4021 175.67 10.4412C175.406 10.3388 175.142 10.2363 174.874 10.1338ZM12.1997 68.8596C12.2207 68.9365 12.2388 69.0896 12.2544 69.3002C12.3847 70.1776 12.0961 72.055 12.8068 73.6898C13.0353 74.1464 13.3272 74.5268 13.6017 74.8114C13.4192 74.6574 13.2473 74.4869 13.09 74.3028C12.9567 74.1207 12.8371 73.9282 12.7326 73.7276C12.032 72.1658 12.272 70.722 12.204 69.3002C12.2025 69.1533 12.2011 69.0064 12.1997 68.8596ZM290.781 76.1668C291.053 76.1708 291.311 76.1737 291.555 76.176C291.284 76.1774 291.022 76.1751 290.781 76.1668ZM180.842 75.5794C181.707 75.4518 179.136 75.409 182.258 75.4589C182.258 75.4588 182.258 75.4587 182.258 75.4586C184.323 75.4915 184.779 75.5003 186.692 75.5102C186.003 75.6741 182.122 75.7327 187.471 75.7665C187.542 75.7667 187.402 75.6692 188.256 75.6825C188.52 75.6867 189.364 75.7667 190.648 75.79C191.063 75.7974 194.182 75.8221 189.931 75.8237C190.058 75.9379 189.829 76.0536 189.839 76.1644C188.18 76.1966 186.905 75.9729 185.149 75.9784C182.543 75.9871 181.217 76.2133 180.716 75.9165C182.907 75.8436 186.67 75.8418 187.161 76.0203C189.281 76.0225 189.89 75.8763 188.181 75.8039C180.857 75.8958 186.17 75.5868 179.758 75.7036C179.682 75.7448 179.418 75.7893 179.459 75.8281C177.501 75.6828 180.534 75.6251 180.842 75.5794ZM196.156 75.8951C194.89 75.9823 193.629 76.0703 192.369 76.1578C192.369 76.0156 193.064 75.888 195.058 75.8079C195.422 75.8371 195.792 75.8662 196.156 75.8951ZM89.7232 75.9324C89.541 76.0097 89.0553 76.0806 88.701 76.1542C88.3164 76.089 79.2064 76.0264 83.8411 75.9625C84.5142 75.9531 88.6199 76.0899 89.7232 75.9324ZM160.537 10.2503C161.61 10.3021 162.678 10.354 163.746 10.4059C162.103 10.4388 160.457 10.4725 158.814 10.506C159.39 10.4208 159.961 10.3355 160.537 10.2503ZM304.839 51.8817C304.842 51.4285 304.948 52.9337 304.931 51.1481C304.999 52.4791 305.057 53.7256 305.121 55.0263C305.071 55.416 305.021 55.8098 304.97 56.1995C305.003 56.5031 305.035 56.8128 305.067 57.1164C304.994 56.9342 304.922 56.7721 304.848 56.5797C305.005 54.3883 304.827 53.8858 304.839 51.8817ZM278.968 10.8362C278.574 10.6769 281.747 10.5822 278.626 10.5568C279.218 10.4521 280.17 10.3973 281.997 10.3879C282.29 10.428 282.583 10.4677 282.876 10.5077C282.916 10.4006 283.386 10.3608 284.413 10.2845C284.414 10.2846 284.415 10.2847 284.416 10.2849C287.193 10.2771 287.027 10.3128 287.695 10.4888C284.755 10.3895 284.667 10.5503 282.663 10.6459C281.286 10.7117 279.489 10.6819 278.968 10.8362ZM99.4295 75.9306C97.3502 76.065 99.2162 76.1904 95.527 76.0476C95.7649 76.0135 96.0038 75.9796 96.2417 75.9454C97.3043 75.9402 98.3669 75.9353 99.4295 75.9306ZM268.706 10.2904C268.944 10.5369 270.902 10.7287 271.236 10.3277C269.328 10.246 270.26 10.4732 268.706 10.2904ZM296.253 75.6517C297.204 75.6547 297.862 75.6756 298.288 75.7074C299.282 75.7808 299.022 75.9136 298.288 76.0161C298.121 76.0395 297.928 76.0614 297.72 76.0806C297.487 76.03 297.255 75.9793 297.027 75.929C296.384 75.9519 295.741 75.975 295.099 75.9976C295.483 75.8824 295.868 75.7669 296.253 75.6517ZM204.025 10.5612C206.829 10.3851 200.999 10.4632 202.957 10.3533C204.521 10.2655 206.582 10.4429 205.803 10.554C205.261 10.5571 204.658 10.5593 204.031 10.5612C204.029 10.5612 204.027 10.5612 204.025 10.5612ZM220.25 10.5108C219.79 10.3227 220.453 10.3775 218.238 10.4114C217.605 10.421 212.579 10.3504 214.689 10.5062C216.485 10.5062 218.383 10.5089 220.25 10.5108ZM253.843 75.9269C253.81 75.845 257.68 75.6652 258.177 75.7102C258.177 75.71 258.177 75.7099 258.177 75.7098C259.518 75.8324 255.435 75.8499 257.206 76.0181C253.284 75.8701 252.111 76.2282 252.384 75.7563C254.695 75.7356 253.601 75.8329 253.843 75.9269ZM12.5853 20.8323C12.5853 20.8305 12.5853 20.8287 12.5853 20.8269C12.5814 21.0868 12.4612 23.2287 12.4196 22.9683C12.4553 20.3925 12.5344 20.8516 12.4044 18.4536C12.4462 18.3221 12.4869 18.2095 12.529 18.0679C12.5539 19.0194 12.6042 19.5468 12.5853 20.8323ZM79.8739 75.7673C80.8203 75.7459 82.5474 75.8346 83.6254 75.8294C80.1941 76.1702 76.0937 75.8524 79.8739 75.7673ZM76.4569 10.4277C76.4595 10.4276 76.4623 10.4274 76.465 10.4273C76.4642 10.4275 76.4631 10.4277 76.4623 10.4279C76.4605 10.4278 76.4587 10.4277 76.4569 10.4277ZM153.212 75.9718C153.09 75.9497 153.021 75.9305 152.996 75.9136C152.996 75.912 152.996 75.9104 152.996 75.9088C153.062 75.9295 153.132 75.9505 153.212 75.9718ZM245.798 75.9517C244.186 75.8374 249.558 75.6558 251.295 75.6992C251.173 75.7513 251.154 75.7986 250.871 75.8585C249.469 75.7234 246.067 75.9709 245.798 75.9517ZM302.662 10.982C303.949 11.7528 303.978 12.2312 303.838 12.0693C303.673 11.9443 303.125 11.4458 302.495 11.1547C301.87 10.8518 301.192 10.7943 301.131 10.659C301.134 10.6325 302.305 10.7577 302.598 10.9517C302.63 10.9661 302.652 10.9767 302.662 10.982ZM279.284 75.9044C280.365 75.7679 278.191 75.7316 281.668 75.7552C281.87 75.7906 282.072 75.826 282.275 75.8614C281.278 75.8757 280.28 75.8901 279.284 75.9044ZM304.306 38.1973C304.382 43.5415 304.516 48.6527 304.893 45.1716C304.881 44.7672 304.869 44.3571 304.857 43.9526C304.673 43.8919 304.773 42.3994 304.779 40.2147C304.706 39.9032 304.69 38.6917 304.628 38.4643C304.508 38.0247 304.423 39.4168 304.306 38.1973ZM104.821 10.7838C104.907 10.7524 104.991 10.7209 105.077 10.6899C105.922 10.6545 106.77 10.6192 107.615 10.5839C107.478 10.644 107.341 10.7042 107.205 10.7644C106.411 10.7709 105.62 10.7775 104.826 10.784C104.824 10.7839 104.823 10.7839 104.821 10.7838ZM201.363 75.5075C200.878 75.8526 202.574 75.7891 206.016 75.6146C204.467 75.5789 202.912 75.5432 201.363 75.5075ZM244.568 10.9429C244.457 10.8448 244.348 10.7471 244.231 10.649C242.404 10.7512 242.744 10.8635 243.619 10.9933C243.938 10.9765 244.25 10.9597 244.568 10.9429ZM218.252 10.9847C219.01 11.0051 218.623 10.9259 218.702 10.9275C220.62 10.9691 220.89 11.0054 223.244 10.9458C223.532 10.925 223.816 10.9032 224.104 10.8818C223.016 10.6763 222.226 10.7883 219.924 10.6675C220.339 10.738 220.752 10.8086 221.167 10.8794C219.887 10.8645 218.612 10.8498 217.332 10.8349C217.18 10.8566 217.028 10.8781 216.876 10.8999C217.331 10.9278 217.801 10.9592 218.252 10.9847ZM95.0469 10.6946C93.802 10.6866 92.5513 10.6782 91.3063 10.6701C91.2607 10.7207 91.2169 10.7716 91.1714 10.8222C92.4617 10.7797 93.7567 10.7372 95.0469 10.6946ZM175.802 75.6647C175.703 75.6827 175.607 75.7008 175.521 75.7191C175.53 75.6967 175.637 75.6793 175.802 75.6647ZM12.8628 17.5474C12.8664 17.4043 12.8694 17.2549 12.8719 17.1002C12.9282 15.8334 12.738 14.1126 13.2989 12.9613C13.3396 12.882 13.3824 12.8054 13.4271 12.7318C13.4029 12.7369 13.3401 12.8094 13.2589 12.9409C12.7696 13.5316 12.7707 15.6968 12.7444 17.1002C12.7365 17.4503 12.7267 17.7581 12.7136 17.9924C12.7364 18.2145 12.8479 18.1442 12.8628 17.5474ZM301.32 75.5652C301.66 75.4558 301.986 75.3166 302.255 75.1305C302.305 75.1096 302.354 75.0872 302.402 75.0632C303.076 74.7285 303.648 74.1848 304.017 73.5199C303.983 73.474 303.948 73.429 303.913 73.3845C303.39 74.3891 302.739 74.749 302.342 74.9456C301.485 75.259 301.435 75.1172 300.222 75.0909C300.582 75.2633 300.937 75.4296 301.32 75.5652ZM55.4342 11.0235C58.1721 10.9884 59.1433 10.9229 57.5998 10.7673C56.6335 10.803 55.6615 10.8387 54.6952 10.8744C54.9431 10.9241 55.1913 10.9738 55.4342 11.0235ZM125.938 75.5476C123.647 75.6057 123.609 75.3969 121.369 75.5135C122.568 75.552 123.767 75.5909 124.962 75.6294C125.284 75.6022 125.615 75.5748 125.938 75.5476ZM238.309 74.9743C237.342 74.9017 235.535 75.2469 232.818 74.9921C232.17 75.0681 231.764 75.1407 231.208 75.2152C230.884 75.1342 230.516 75.0521 230.207 74.9717C230.205 74.9717 230.204 74.9717 230.202 74.9717C227.737 74.9991 229.335 75.1007 229.279 75.1867C229.253 75.2223 227.424 75.1627 227.996 75.2403C228.983 75.3735 232.67 75.2969 232.68 75.4593C231.385 75.4062 228.855 75.4506 229.603 75.5589C230.423 75.6778 232.807 75.4786 234.325 75.5772C232.15 75.3177 236.643 75.3979 237.155 75.5972C239.791 75.4441 237.368 75.3817 234.665 75.3888C236.315 75.2361 233.887 75.3186 233.487 75.1916C235.188 75.115 241.026 75.1789 238.309 74.9743ZM304.241 15.943C304.246 16.294 304.244 16.6858 304.241 17.1002C304.228 18.8092 304.192 20.8516 304.295 21.8565C304.37 22.5832 304.429 19.7295 304.547 21.6974C304.535 19.9219 304.489 19.5167 304.386 19.8203C304.373 19.4157 304.361 19.0059 304.349 18.6013C304.369 18.4142 304.389 18.2221 304.409 18.035C304.367 17.8224 304.325 17.6087 304.282 17.4012C304.284 17.3011 304.286 17.2007 304.288 17.1002C304.294 16.7681 304.301 16.4363 304.306 16.1086C304.284 16.0575 304.265 15.9733 304.241 15.943ZM60.1511 75.554C60.6571 75.5527 61.1582 75.5515 61.6641 75.5499C61.6084 75.5248 61.542 75.4986 61.478 75.4727C61.4322 75.4522 61.3864 75.4318 61.3405 75.4113C61.6337 75.4844 64.0442 75.6058 65.0596 75.5278C65.5701 75.4887 64.4084 75.3497 66.5726 75.3255C65.0041 75.3326 63.5512 75.3516 62.0282 75.3634C62.1649 75.3221 62.2961 75.2803 62.4328 75.2391C62.4319 75.239 62.431 75.2389 62.4301 75.2389C61.9241 75.2296 61.4122 75.2198 60.9063 75.2105C60.6532 75.3251 60.4042 75.4394 60.1511 75.554ZM246.052 11.1368C247.778 11.0558 248.355 11.0137 247.54 10.8827C247.539 10.8826 247.537 10.8825 247.535 10.8825C246.892 10.9405 246.249 10.9986 245.607 11.0566C245.754 11.0833 245.9 11.1101 246.052 11.1368ZM160.936 75.2323C157.267 75.73 165.53 75.4249 163.957 75.2553C163.886 75.2476 161.28 75.2872 160.936 75.2323ZM295.579 75.4987C296.48 75.4951 297.383 75.4918 298.288 75.4882C298.397 75.4878 298.5 75.4874 298.608 75.4869C298.501 75.4593 298.397 75.4316 298.288 75.4039C298.16 75.3705 298.031 75.3371 297.903 75.3037C297.129 75.3686 296.353 75.4338 295.579 75.4987ZM67.3547 11.2494C68.4147 11.386 71.1357 11.4355 72.4654 11.2869C71.7669 11.2696 71.0683 11.2521 70.3699 11.2348C71.6902 11.2177 72.9958 11.1989 74.3263 11.1828C74.3971 10.9924 72.8638 11.1029 70.556 11.0504C70.1987 11.0419 67.9142 10.8057 67.1254 10.9837C66.9667 11.0203 69.3968 11.0452 67.708 11.1516C68.4465 11.16 69.0839 11.1582 69.7819 11.1628C69.8326 11.2081 69.8827 11.2535 69.9384 11.2988C69.0751 11.2824 68.2178 11.2658 67.3547 11.2494ZM304.259 26.5492C304.248 29.0524 304.324 29.3615 304.459 29.8826C304.443 28.7186 304.428 27.5541 304.413 26.3901C304.362 26.4456 304.31 26.4937 304.259 26.5492ZM89.7286 11.293C91.099 11.315 90.512 11.2056 91.0636 11.1848C93.1485 11.1066 94.5706 11.1847 96.6301 11.1357C96.4934 11.1568 96.3679 11.1766 96.2363 11.197C96.2381 11.197 96.2399 11.197 96.2417 11.197C105.994 11.2892 100.871 11.0411 95.0361 11.0815C94.8995 11.0408 94.7683 11.0001 94.6316 10.9598C92.0203 11.0308 89.6122 11.0993 89.7286 11.293ZM193.534 75.2152C193.423 75.1898 194.369 75.028 192.593 75.1037C191.186 75.34 193.493 75.2227 194.071 75.3136C193.59 75.3362 193.098 75.3583 192.623 75.381C195.497 75.4477 195.917 75.3915 194.869 75.2189C194.794 75.2073 193.646 75.2406 193.534 75.2152ZM174.642 75.0988C174.247 75.4468 177.875 75.2903 177.743 75.1823C177.243 75.178 176.853 75.2369 176.322 75.2109C175.786 75.1848 175.649 75.1035 174.642 75.0988ZM278.58 75.1839C278.473 75.1824 277.406 75.0361 277.512 75.1506C278.833 75.4217 281.494 75.2472 281.029 75.1528C280.148 75.1575 279.561 75.1982 278.58 75.1836C278.58 75.1837 278.58 75.1838 278.58 75.1839ZM50.844 11.3314C50.8945 11.3411 53.5585 11.3999 53.9023 11.3454C54.1856 11.2839 54.3263 11.218 54.5388 11.1544C53.0711 11.2134 50.1003 11.1684 50.8493 11.3314C50.8476 11.3314 50.8457 11.3314 50.844 11.3314Z" fill="#DE7440"/>
<defs>
<filter id="filter0_dgn_986_878" x="-4.88758e-05" y="0.000195265" width="317.7" height="86.7" filterUnits="userSpaceOnUse" color-interpolation-filters="sRGB">
<feFlood flood-opacity="0" result="BackgroundImageFix"/>
<feColorMatrix in="SourceAlpha" type="matrix" values="0 0 0 0 0 0 0 0 0 0 0 0 0 0 0 0 0 0 127 0" result="hardAlpha"/>
<feOffset dx="2" dy="2"/>
<feGaussianBlur stdDeviation="1"/>
<feComposite in2="hardAlpha" operator="out"/>
<feColorMatrix type="matrix" values="0 0 0 0 0 0 0 0 0 0 0 0 0 0 0 0 0 0 0.1 0"/>
<feBlend mode="normal" in2="BackgroundImageFix" result="effect1_dropShadow_986_878"/>
<feBlend mode="normal" in="SourceGraphic" in2="effect1_dropShadow_986_878" result="shape"/>
<feTurbulence type="fractalNoise" baseFrequency="0.047846890985965729 0.047846890985965729" numOctaves="3" seed="8948" />
<feDisplacementMap in="shape" scale="7.4000000953674316" xChannelSelector="R" yChannelSelector="G" result="displacedImage" width="100%" height="100%" />
<feMerge result="effect2_texture_986_878">
<feMergeNode in="displacedImage"/>
</feMerge>
<feTurbulence type="fractalNoise" baseFrequency="2 2" stitchTiles="stitch" numOctaves="3" result="noise" seed="7964" />
<feColorMatrix in="noise" type="luminanceToAlpha" result="alphaNoise" />
<feComponentTransfer in="alphaNoise" result="coloredNoise1">
<feFuncA type="discrete" tableValues="1 1 1 1 1 1 1 1 1 1 1 1 1 1 1 1 1 1 1 1 1 1 1 1 1 1 1 1 1 1 1 1 1 1 1 1 1 1 1 1 1 1 1 1 1 1 1 1 1 1 1 0 0 0 0 0 0 0 0 0 0 0 0 0 0 0 0 0 0 0 0 0 0 0 0 0 0 0 0 0 0 0 0 0 0 0 0 0 0 0 0 0 0 0 0 0 0 0 0 0 "/>
</feComponentTransfer>
<feComposite operator="in" in2="effect2_texture_986_878" in="coloredNoise1" result="noise1Clipped" />
<feFlood flood-color="rgba(0, 0, 0, 0.05)" result="color1Flood" />
<feComposite operator="in" in2="noise1Clipped" in="color1Flood" result="color1" />
<feMerge result="effect3_noise_986_878">
<feMergeNode in="effect2_texture_986_878" />
<feMergeNode in="color1" />
</feMerge>
</filter>
</defs>
</svg>
